<svg width="914" height="433" viewBox="0 0 914 433" fill="none" xmlns="http://www.w3.org/2000/svg">
<path d="M533.156 0.719971C603.088 0.719971 659.78 58.0676 659.78 128.808C659.78 128.811 659.78 128.816 659.78 128.819C659.78 151.847 653.773 173.455 643.255 192.128C677.278 215.936 699.566 255.686 699.566 300.702C699.566 300.702 699.566 300.703 699.566 300.703C699.566 373.565 641.176 432.63 569.147 432.63C463.634 432.63 332.487 432.63 332.487 432.63V0.719971H533.156ZM284.573 432.599H0.0400391V0.719971H106.391V343.47H284.573V432.599ZM593.681 293.462C593.681 265.847 571.551 243.462 544.252 243.462C497.322 243.462 433.896 243.462 433.896 243.462V343.47C433.896 343.47 497.322 343.47 544.252 343.47C571.551 343.47 593.681 321.084 593.681 293.47C593.681 293.467 593.681 293.465 593.681 293.462ZM558.261 129.343C558.261 116.864 553.36 104.895 544.638 96.0708C535.914 87.2477 524.082 82.2894 511.746 82.2894C476.42 82.2894 433.874 82.2894 433.874 82.2894V176.407C433.874 176.407 476.42 176.407 511.746 176.407C524.082 176.407 535.914 171.45 544.638 162.626C553.36 153.801 558.261 141.834 558.261 129.354C558.261 129.351 558.261 129.346 558.261 129.343Z" fill="white"/>
<path d="M828.778 216.903H796.911V136.849L728.377 176.876L712.443 148.96L780.978 108.933L712.443 68.9059L728.377 40.9907L796.911 81.0175V0.963867H828.778V81.0175L897.313 40.9907L913.246 68.9059L844.712 108.933L913.246 148.96L897.313 176.876L828.778 136.849V216.903Z" fill="#FF6E00"/>
</svg>
