<?xml version="1.0" encoding="UTF-8" standalone="no"?>
<svg width="214px" height="65px" viewBox="0 0 214 65" version="1.1" xmlns="http://www.w3.org/2000/svg" xmlns:xlink="http://www.w3.org/1999/xlink" xmlns:sketch="http://www.bohemiancoding.com/sketch/ns">
    <!-- Generator: Sketch 3.3.3 (12081) - http://www.bohemiancoding.com/sketch -->
    <title>Imported Layers</title>
    <desc>Created with Sketch.</desc>
    <defs></defs>
    <g id="Welcome" stroke="none" stroke-width="1" fill="none" fill-rule="evenodd" sketch:type="MSPage">
        <g id="Desktop-HD" sketch:type="MSArtboardGroup" transform="translate(-168.000000, -23.000000)" fill="#FFFFFF">
            <g id="Imported-Layers" sketch:type="MSLayerGroup" transform="translate(168.000000, 23.000000)">
                <path d="M0.094,0.667 L59.691,0.667 L59.691,60.41 L0.094,60.41 L0.094,0.667 Z M2.521,57.977 L57.265,57.977 L57.265,3.099 L2.521,3.099 L2.521,57.977 Z" id="Fill-1" sketch:type="MSShapeGroup"></path>
                <path d="M81.492,15.992 C80.907,15.992 80.347,15.892 79.812,15.693 C79.277,15.494 78.782,15.187 78.327,14.775 L79.129,13.818 C79.498,14.137 79.87,14.382 80.246,14.552 C80.621,14.722 81.048,14.807 81.525,14.807 C81.936,14.807 82.264,14.721 82.505,14.547 C82.748,14.373 82.868,14.141 82.868,13.851 L82.868,13.83 C82.868,13.692 82.845,13.571 82.798,13.466 C82.751,13.361 82.664,13.261 82.537,13.167 C82.41,13.073 82.236,12.986 82.015,12.906 C81.794,12.827 81.506,12.747 81.151,12.667 C80.746,12.573 80.385,12.466 80.07,12.346 C79.756,12.227 79.491,12.082 79.277,11.912 C79.064,11.742 78.901,11.534 78.788,11.287 C78.676,11.041 78.62,10.744 78.62,10.396 L78.62,10.374 C78.62,10.048 78.684,9.75 78.813,9.478 C78.942,9.206 79.119,8.974 79.345,8.783 C79.571,8.591 79.843,8.441 80.16,8.332 C80.477,8.223 80.824,8.169 81.199,8.169 C81.756,8.169 82.256,8.25 82.701,8.413 C83.145,8.576 83.562,8.814 83.953,9.125 L83.237,10.136 C82.89,9.882 82.547,9.688 82.207,9.554 C81.868,9.42 81.525,9.353 81.178,9.353 C80.788,9.353 80.484,9.44 80.267,9.614 C80.051,9.788 79.942,10.001 79.942,10.255 L79.942,10.276 C79.942,10.421 79.967,10.55 80.018,10.662 C80.069,10.775 80.161,10.876 80.295,10.966 C80.429,11.057 80.614,11.142 80.849,11.222 C81.085,11.302 81.384,11.385 81.746,11.472 C82.145,11.574 82.498,11.686 82.806,11.809 C83.113,11.932 83.368,12.082 83.572,12.259 C83.774,12.437 83.928,12.644 84.033,12.879 C84.138,13.114 84.191,13.388 84.191,13.699 L84.191,13.721 C84.191,14.076 84.124,14.395 83.992,14.677 C83.859,14.959 83.675,15.199 83.438,15.394 C83.202,15.589 82.918,15.738 82.586,15.84 C82.254,15.941 81.889,15.992 81.492,15.992" id="Fill-2" sketch:type="MSShapeGroup"></path>
                <path d="M87.93,8.277 L89.252,8.277 L89.252,14.677 L93.241,14.677 L93.241,15.883 L87.93,15.883 L87.93,8.277" id="Fill-3" sketch:type="MSShapeGroup"></path>
                <path d="M100.427,16.014 C99.842,16.014 99.307,15.91 98.823,15.704 C98.339,15.498 97.923,15.217 97.576,14.862 C97.23,14.507 96.959,14.092 96.763,13.618 C96.569,13.143 96.471,12.638 96.471,12.102 L96.471,12.08 C96.471,11.544 96.569,11.039 96.763,10.564 C96.959,10.091 97.233,9.674 97.588,9.315 C97.941,8.957 98.361,8.672 98.845,8.462 C99.329,8.252 99.863,8.147 100.449,8.147 C101.034,8.147 101.569,8.25 102.053,8.457 C102.537,8.663 102.952,8.944 103.3,9.299 C103.646,9.654 103.917,10.068 104.112,10.543 C104.307,11.018 104.405,11.522 104.405,12.059 L104.405,12.08 C104.405,12.616 104.307,13.122 104.112,13.596 C103.917,14.07 103.643,14.487 103.289,14.845 C102.935,15.204 102.515,15.489 102.031,15.698 C101.547,15.909 101.013,16.014 100.427,16.014 L100.427,16.014 Z M100.449,14.786 C100.823,14.786 101.167,14.715 101.479,14.574 C101.792,14.433 102.061,14.241 102.283,13.998 C102.506,13.755 102.681,13.471 102.807,13.145 C102.933,12.819 102.996,12.472 102.996,12.102 L102.996,12.08 C102.996,11.711 102.933,11.362 102.807,11.032 C102.681,10.702 102.504,10.416 102.278,10.174 C102.051,9.931 101.78,9.737 101.463,9.592 C101.146,9.447 100.801,9.375 100.427,9.375 C100.053,9.375 99.709,9.446 99.396,9.587 C99.084,9.728 98.815,9.92 98.592,10.162 C98.369,10.405 98.195,10.69 98.069,11.015 C97.943,11.341 97.88,11.689 97.88,12.059 L97.88,12.08 C97.88,12.45 97.943,12.799 98.069,13.129 C98.195,13.459 98.371,13.744 98.598,13.987 C98.825,14.23 99.096,14.424 99.413,14.569 C99.729,14.713 100.075,14.786 100.449,14.786 L100.449,14.786 Z" id="Fill-4" sketch:type="MSShapeGroup"></path>
                <path d="M107.537,8.277 L109.011,8.277 L111.298,14.123 L113.575,8.277 L115.016,8.277 L111.862,15.938 L110.691,15.938 L107.537,8.277" id="Fill-5" sketch:type="MSShapeGroup"></path>
                <path d="M118.484,8.277 L124.099,8.277 L124.099,9.484 L119.807,9.484 L119.807,11.439 L123.612,11.439 L123.612,12.646 L119.807,12.646 L119.807,14.677 L124.153,14.677 L124.153,15.883 L118.484,15.883 L118.484,8.277" id="Fill-6" sketch:type="MSShapeGroup"></path>
                <path d="M127.914,8.277 L129.147,8.277 L133.203,13.536 L133.203,8.277 L134.526,8.277 L134.526,15.883 L133.411,15.883 L129.236,10.472 L129.236,15.883 L127.914,15.883 L127.914,8.277" id="Fill-7" sketch:type="MSShapeGroup"></path>
                <path d="M141.311,15.992 C140.725,15.992 140.166,15.892 139.631,15.693 C139.096,15.494 138.601,15.187 138.146,14.775 L138.948,13.818 C139.317,14.137 139.689,14.382 140.064,14.552 C140.44,14.722 140.866,14.807 141.343,14.807 C141.755,14.807 142.082,14.721 142.324,14.547 C142.566,14.373 142.687,14.141 142.687,13.851 L142.687,13.83 C142.687,13.692 142.664,13.571 142.617,13.466 C142.57,13.361 142.483,13.261 142.356,13.167 C142.229,13.073 142.055,12.986 141.834,12.906 C141.613,12.827 141.325,12.747 140.97,12.667 C140.564,12.573 140.204,12.466 139.889,12.346 C139.574,12.227 139.31,12.082 139.096,11.912 C138.882,11.742 138.719,11.534 138.607,11.287 C138.495,11.041 138.438,10.744 138.438,10.396 L138.438,10.374 C138.438,10.048 138.503,9.75 138.632,9.478 C138.761,9.206 138.938,8.974 139.164,8.783 C139.39,8.591 139.661,8.441 139.978,8.332 C140.296,8.223 140.642,8.169 141.018,8.169 C141.574,8.169 142.075,8.25 142.519,8.413 C142.964,8.576 143.381,8.814 143.771,9.125 L143.056,10.136 C142.709,9.882 142.365,9.688 142.026,9.554 C141.686,9.42 141.343,9.353 140.996,9.353 C140.606,9.353 140.303,9.44 140.086,9.614 C139.869,9.788 139.761,10.001 139.761,10.255 L139.761,10.276 C139.761,10.421 139.786,10.55 139.837,10.662 C139.888,10.775 139.979,10.876 140.114,10.966 C140.248,11.057 140.433,11.142 140.668,11.222 C140.903,11.302 141.202,11.385 141.564,11.472 C141.963,11.574 142.316,11.686 142.624,11.809 C142.932,11.932 143.187,12.082 143.39,12.259 C143.593,12.437 143.747,12.644 143.852,12.879 C143.957,13.114 144.009,13.388 144.009,13.699 L144.009,13.721 C144.009,14.076 143.943,14.395 143.81,14.677 C143.678,14.959 143.493,15.199 143.257,15.394 C143.021,15.589 142.736,15.738 142.404,15.84 C142.073,15.941 141.708,15.992 141.311,15.992" id="Fill-8" sketch:type="MSShapeGroup"></path>
                <path d="M147.749,8.277 L149.071,8.277 L149.071,12.102 L152.68,8.277 L154.317,8.277 L151.163,11.548 L154.458,15.883 L152.843,15.883 L150.252,12.461 L149.071,13.677 L149.071,15.883 L147.749,15.883 L147.749,8.277" id="Fill-9" sketch:type="MSShapeGroup"></path>
                <path d="M160.462,8.223 L161.698,8.223 L165.037,15.883 L163.627,15.883 L162.858,14.047 L159.27,14.047 L158.49,15.883 L157.124,15.883 L160.462,8.223 L160.462,8.223 Z M162.37,12.862 L161.059,9.82 L159.758,12.862 L162.37,12.862 L162.37,12.862 Z M161.687,5.865 L162.879,6.398 L161.557,7.647 L160.539,7.647 L161.687,5.865 L161.687,5.865 Z" id="Fill-10" sketch:type="MSShapeGroup"></path>
                <path d="M81.936,36.68 C81.445,36.68 81,36.61 80.604,36.469 C80.206,36.327 79.866,36.115 79.584,35.833 C79.302,35.55 79.086,35.201 78.934,34.784 C78.782,34.368 78.706,33.885 78.706,33.334 L78.706,28.955 L80.029,28.955 L80.029,33.279 C80.029,33.99 80.199,34.529 80.541,34.898 C80.883,35.268 81.355,35.452 81.958,35.452 C82.554,35.452 83.022,35.275 83.364,34.92 C83.706,34.565 83.877,34.036 83.877,33.334 L83.877,28.955 L85.199,28.955 L85.199,33.269 C85.199,33.833 85.121,34.33 84.966,34.757 C84.811,35.185 84.592,35.542 84.31,35.827 C84.028,36.113 83.687,36.327 83.286,36.469 C82.885,36.61 82.435,36.68 81.936,36.68" id="Fill-11" sketch:type="MSShapeGroup"></path>
                <path d="M91.864,36.669 C91.279,36.669 90.719,36.57 90.184,36.371 C89.65,36.172 89.154,35.865 88.699,35.452 L89.502,34.496 C89.87,34.815 90.242,35.06 90.618,35.23 C90.993,35.4 91.42,35.485 91.897,35.485 C92.309,35.485 92.636,35.398 92.877,35.224 C93.12,35.05 93.241,34.819 93.241,34.529 L93.241,34.508 C93.241,34.37 93.218,34.248 93.17,34.143 C93.123,34.038 93.036,33.939 92.909,33.845 C92.783,33.75 92.609,33.664 92.388,33.584 C92.167,33.504 91.879,33.424 91.524,33.345 C91.118,33.251 90.758,33.144 90.443,33.024 C90.128,32.905 89.863,32.76 89.65,32.59 C89.436,32.419 89.273,32.211 89.16,31.965 C89.048,31.719 88.992,31.422 88.992,31.074 L88.992,31.052 C88.992,30.726 89.057,30.427 89.185,30.156 C89.314,29.884 89.492,29.652 89.717,29.46 C89.944,29.269 90.215,29.118 90.532,29.01 C90.849,28.901 91.196,28.846 91.572,28.846 C92.128,28.846 92.629,28.928 93.073,29.091 C93.517,29.254 93.934,29.491 94.325,29.802 L93.609,30.813 C93.263,30.56 92.919,30.366 92.579,30.232 C92.24,30.098 91.897,30.031 91.55,30.031 C91.16,30.031 90.857,30.118 90.64,30.291 C90.423,30.465 90.314,30.679 90.314,30.933 L90.314,30.954 C90.314,31.099 90.339,31.228 90.39,31.34 C90.441,31.452 90.533,31.554 90.668,31.644 C90.801,31.735 90.986,31.82 91.222,31.9 C91.457,31.979 91.756,32.062 92.118,32.15 C92.517,32.251 92.87,32.363 93.178,32.486 C93.485,32.609 93.741,32.76 93.944,32.937 C94.147,33.115 94.301,33.321 94.405,33.557 C94.51,33.792 94.563,34.066 94.563,34.377 L94.563,34.399 C94.563,34.753 94.497,35.072 94.364,35.355 C94.231,35.637 94.047,35.876 93.811,36.072 C93.574,36.267 93.29,36.416 92.958,36.517 C92.626,36.619 92.261,36.669 91.864,36.669" id="Fill-12" sketch:type="MSShapeGroup"></path>
                <path d="M98.303,28.955 L103.917,28.955 L103.917,30.161 L99.625,30.161 L99.625,32.117 L103.43,32.117 L103.43,33.323 L99.625,33.323 L99.625,35.355 L103.971,35.355 L103.971,36.561 L98.303,36.561 L98.303,28.955" id="Fill-13" sketch:type="MSShapeGroup"></path>
                <path d="M107.732,28.955 L111.114,28.955 C111.591,28.955 112.014,29.022 112.383,29.156 C112.751,29.29 113.058,29.476 113.304,29.716 C113.506,29.926 113.661,30.168 113.77,30.444 C113.878,30.719 113.933,31.023 113.933,31.356 L113.933,31.378 C113.933,31.689 113.888,31.97 113.797,32.22 C113.707,32.47 113.582,32.691 113.423,32.883 C113.264,33.075 113.074,33.238 112.854,33.372 C112.633,33.506 112.39,33.609 112.122,33.681 L114.171,36.561 L112.599,36.561 L110.729,33.909 L109.055,33.909 L109.055,36.561 L107.732,36.561 L107.732,28.955 L107.732,28.955 Z M111.012,32.725 C111.49,32.725 111.871,32.611 112.153,32.382 C112.436,32.153 112.577,31.841 112.577,31.449 L112.577,31.427 C112.577,31.012 112.44,30.698 112.165,30.483 C111.889,30.269 111.501,30.161 111.001,30.161 L109.055,30.161 L109.055,32.725 L111.012,32.725 L111.012,32.725 Z" id="Fill-14" sketch:type="MSShapeGroup"></path>
                <path d="M123.155,28.955 L128.77,28.955 L128.77,30.161 L124.478,30.161 L124.478,32.117 L128.283,32.117 L128.283,33.323 L124.478,33.323 L124.478,35.355 L128.824,35.355 L128.824,36.561 L123.155,36.561 L123.155,28.955" id="Fill-15" sketch:type="MSShapeGroup"></path>
                <path d="M134.775,32.693 L132.119,28.955 L133.691,28.955 L135.577,31.682 L137.473,28.955 L139.002,28.955 L136.357,32.671 L139.11,36.561 L137.539,36.561 L135.544,33.681 L133.539,36.561 L132.011,36.561 L134.775,32.693" id="Fill-16" sketch:type="MSShapeGroup"></path>
                <path d="M142.654,28.955 L145.646,28.955 C146.087,28.955 146.486,29.015 146.843,29.134 C147.201,29.254 147.504,29.426 147.754,29.65 C148.003,29.875 148.195,30.143 148.328,30.455 C148.462,30.766 148.529,31.114 148.529,31.497 L148.529,31.519 C148.529,31.947 148.449,32.322 148.289,32.644 C148.13,32.966 147.913,33.236 147.638,33.453 C147.363,33.671 147.04,33.836 146.671,33.947 C146.302,34.06 145.906,34.116 145.486,34.116 L143.976,34.116 L143.976,36.561 L142.654,36.561 L142.654,28.955 L142.654,28.955 Z M145.531,32.91 C146.039,32.91 146.44,32.783 146.734,32.528 C147.027,32.274 147.174,31.947 147.174,31.546 L147.174,31.525 C147.174,31.074 147.025,30.734 146.728,30.505 C146.431,30.276 146.032,30.161 145.531,30.161 L143.976,30.161 L143.976,32.91 L145.531,32.91 L145.531,32.91 Z" id="Fill-17" sketch:type="MSShapeGroup"></path>
                <path d="M152.062,28.955 L157.677,28.955 L157.677,30.161 L153.385,30.161 L153.385,32.117 L157.189,32.117 L157.189,33.323 L153.385,33.323 L153.385,35.355 L157.731,35.355 L157.731,36.561 L152.062,36.561 L152.062,28.955" id="Fill-18" sketch:type="MSShapeGroup"></path>
                <path d="M161.492,28.955 L164.874,28.955 C165.351,28.955 165.774,29.022 166.142,29.156 C166.511,29.29 166.818,29.476 167.063,29.716 C167.265,29.926 167.421,30.168 167.529,30.444 C167.638,30.719 167.692,31.023 167.692,31.356 L167.692,31.378 C167.692,31.689 167.647,31.97 167.556,32.22 C167.466,32.47 167.341,32.691 167.182,32.883 C167.024,33.075 166.833,33.238 166.614,33.372 C166.393,33.506 166.149,33.609 165.882,33.681 L167.93,36.561 L166.359,36.561 L164.489,33.909 L162.814,33.909 L162.814,36.561 L161.492,36.561 L161.492,28.955 L161.492,28.955 Z M164.772,32.725 C165.25,32.725 165.63,32.611 165.913,32.382 C166.195,32.153 166.337,31.841 166.337,31.449 L166.337,31.427 C166.337,31.012 166.199,30.698 165.924,30.483 C165.649,30.269 165.26,30.161 164.76,30.161 L162.814,30.161 L162.814,32.725 L164.772,32.725 L164.772,32.725 Z" id="Fill-19" sketch:type="MSShapeGroup"></path>
                <path d="M171.572,28.955 L172.894,28.955 L172.894,36.561 L171.572,36.561 L171.572,28.955 Z" id="Fill-20" sketch:type="MSShapeGroup"></path>
                <path d="M177.099,28.955 L182.714,28.955 L182.714,30.161 L178.421,30.161 L178.421,32.117 L182.226,32.117 L182.226,33.323 L178.421,33.323 L178.421,35.355 L182.768,35.355 L182.768,36.561 L177.099,36.561 L177.099,28.955" id="Fill-21" sketch:type="MSShapeGroup"></path>
                <path d="M186.529,28.955 L187.762,28.955 L191.818,34.214 L191.818,28.955 L193.141,28.955 L193.141,36.561 L192.026,36.561 L187.851,31.15 L187.851,36.561 L186.529,36.561 L186.529,28.955" id="Fill-22" sketch:type="MSShapeGroup"></path>
                <path d="M200.793,36.691 C200.237,36.691 199.724,36.59 199.254,36.387 C198.784,36.184 198.377,35.907 198.031,35.556 C197.686,35.205 197.415,34.79 197.219,34.312 C197.022,33.833 196.923,33.323 196.923,32.78 L196.923,32.758 C196.923,32.215 197.02,31.706 197.213,31.231 C197.406,30.757 197.677,30.341 198.026,29.982 C198.375,29.623 198.788,29.341 199.265,29.134 C199.742,28.928 200.269,28.825 200.847,28.825 C201.194,28.825 201.51,28.854 201.796,28.912 C202.081,28.97 202.343,29.051 202.582,29.156 C202.82,29.261 203.04,29.386 203.243,29.531 C203.445,29.676 203.637,29.835 203.817,30.009 L202.961,30.998 C202.657,30.715 202.336,30.487 201.996,30.313 C201.657,30.139 201.27,30.053 200.837,30.053 C200.475,30.053 200.141,30.123 199.834,30.265 C199.527,30.406 199.261,30.598 199.038,30.84 C198.813,31.083 198.64,31.367 198.517,31.693 C198.394,32.019 198.333,32.367 198.333,32.736 L198.333,32.758 C198.333,33.127 198.394,33.477 198.517,33.807 C198.64,34.136 198.813,34.424 199.038,34.67 C199.261,34.917 199.527,35.11 199.834,35.252 C200.141,35.393 200.475,35.464 200.837,35.464 C201.299,35.464 201.696,35.375 202.029,35.197 C202.361,35.02 202.69,34.779 203.015,34.475 L203.871,35.344 C203.676,35.554 203.472,35.74 203.259,35.903 C203.046,36.067 202.816,36.208 202.571,36.327 C202.325,36.447 202.056,36.537 201.763,36.599 C201.471,36.66 201.147,36.691 200.793,36.691" id="Fill-23" sketch:type="MSShapeGroup"></path>
                <path d="M207.426,28.955 L213.04,28.955 L213.04,30.161 L208.748,30.161 L208.748,32.117 L212.553,32.117 L212.553,33.323 L208.748,33.323 L208.748,35.355 L213.094,35.355 L213.094,36.561 L207.426,36.561 L207.426,28.955" id="Fill-24" sketch:type="MSShapeGroup"></path>
                <path d="M81.514,49.579 L82.749,49.579 L86.088,57.238 L84.678,57.238 L83.909,55.403 L80.322,55.403 L79.541,57.238 L78.176,57.238 L81.514,49.579 L81.514,49.579 Z M83.421,54.218 L82.11,51.176 L80.809,54.218 L83.421,54.218 L83.421,54.218 Z" id="Fill-25" sketch:type="MSShapeGroup"></path>
                <path d="M92.222,57.347 C91.637,57.347 91.077,57.247 90.542,57.048 C90.008,56.849 89.512,56.543 89.057,56.13 L89.859,55.174 C90.228,55.493 90.6,55.737 90.976,55.907 C91.351,56.078 91.778,56.163 92.255,56.163 C92.667,56.163 92.994,56.076 93.235,55.902 C93.478,55.728 93.599,55.496 93.599,55.207 L93.599,55.185 C93.599,55.047 93.575,54.926 93.528,54.821 C93.481,54.716 93.394,54.616 93.267,54.522 C93.141,54.428 92.966,54.341 92.745,54.262 C92.524,54.182 92.236,54.102 91.882,54.022 C91.476,53.929 91.115,53.822 90.8,53.702 C90.486,53.582 90.221,53.437 90.008,53.267 C89.794,53.097 89.631,52.889 89.518,52.643 C89.406,52.396 89.35,52.099 89.35,51.752 L89.35,51.73 C89.35,51.404 89.415,51.105 89.543,50.834 C89.672,50.562 89.849,50.33 90.075,50.138 C90.301,49.946 90.573,49.796 90.89,49.687 C91.207,49.579 91.554,49.524 91.93,49.524 C92.486,49.524 92.986,49.605 93.431,49.769 C93.875,49.931 94.292,50.169 94.683,50.48 L93.967,51.491 C93.62,51.237 93.277,51.044 92.937,50.91 C92.598,50.775 92.255,50.708 91.908,50.708 C91.518,50.708 91.214,50.796 90.998,50.969 C90.781,51.143 90.672,51.357 90.672,51.61 L90.672,51.632 C90.672,51.777 90.697,51.906 90.748,52.018 C90.799,52.13 90.891,52.232 91.025,52.322 C91.159,52.413 91.344,52.498 91.579,52.577 C91.815,52.657 92.114,52.74 92.476,52.827 C92.875,52.929 93.228,53.041 93.536,53.164 C93.843,53.287 94.099,53.437 94.302,53.615 C94.504,53.792 94.658,53.999 94.763,54.234 C94.868,54.469 94.921,54.743 94.921,55.055 L94.921,55.077 C94.921,55.431 94.855,55.75 94.722,56.033 C94.589,56.315 94.405,56.554 94.168,56.75 C93.932,56.945 93.648,57.093 93.316,57.195 C92.984,57.297 92.619,57.347 92.222,57.347" id="Fill-26" sketch:type="MSShapeGroup"></path>
                <path d="M102.28,57.369 C101.695,57.369 101.16,57.266 100.676,57.059 C100.192,56.853 99.777,56.572 99.43,56.217 C99.083,55.862 98.812,55.448 98.617,54.973 C98.422,54.499 98.324,53.994 98.324,53.458 L98.324,53.436 C98.324,52.9 98.422,52.394 98.617,51.92 C98.812,51.446 99.087,51.029 99.441,50.67 C99.794,50.312 100.214,50.028 100.698,49.817 C101.182,49.608 101.716,49.503 102.302,49.503 C102.887,49.503 103.422,49.605 103.906,49.812 C104.39,50.019 104.806,50.299 105.153,50.654 C105.499,51.009 105.771,51.424 105.966,51.898 C106.161,52.373 106.258,52.878 106.258,53.414 L106.258,53.436 C106.258,53.972 106.161,54.477 105.966,54.951 C105.771,55.426 105.496,55.842 105.142,56.201 C104.788,56.56 104.368,56.844 103.884,57.054 C103.4,57.264 102.866,57.369 102.28,57.369 L102.28,57.369 Z M102.302,56.141 C102.676,56.141 103.02,56.071 103.333,55.929 C103.645,55.788 103.914,55.596 104.137,55.353 C104.359,55.111 104.534,54.826 104.66,54.5 C104.786,54.174 104.849,53.827 104.849,53.458 L104.849,53.436 C104.849,53.066 104.786,52.717 104.66,52.387 C104.534,52.058 104.358,51.771 104.131,51.529 C103.904,51.286 103.633,51.093 103.317,50.948 C103,50.803 102.654,50.73 102.28,50.73 C101.906,50.73 101.562,50.801 101.25,50.942 C100.937,51.084 100.668,51.275 100.446,51.518 C100.222,51.761 100.048,52.045 99.922,52.371 C99.796,52.697 99.733,53.045 99.733,53.414 L99.733,53.436 C99.733,53.805 99.796,54.155 99.922,54.484 C100.048,54.814 100.225,55.1 100.451,55.343 C100.678,55.586 100.949,55.779 101.266,55.924 C101.583,56.069 101.928,56.141 102.302,56.141 L102.302,56.141 Z" id="Fill-27" sketch:type="MSShapeGroup"></path>
                <path d="M113.574,57.369 C113.018,57.369 112.505,57.267 112.035,57.065 C111.566,56.862 111.158,56.585 110.813,56.233 C110.467,55.882 110.196,55.467 110,54.989 C109.803,54.511 109.705,54.001 109.705,53.458 L109.705,53.436 C109.705,52.893 109.801,52.384 109.994,51.909 C110.187,51.435 110.458,51.018 110.807,50.66 C111.156,50.301 111.569,50.019 112.046,49.812 C112.523,49.605 113.05,49.503 113.629,49.503 C113.975,49.503 114.292,49.532 114.577,49.589 C114.862,49.648 115.124,49.729 115.363,49.834 C115.601,49.939 115.821,50.064 116.024,50.209 C116.226,50.354 116.418,50.513 116.599,50.687 L115.742,51.676 C115.439,51.393 115.117,51.165 114.777,50.991 C114.438,50.817 114.051,50.73 113.618,50.73 C113.257,50.73 112.922,50.801 112.615,50.942 C112.308,51.084 112.043,51.275 111.819,51.518 C111.595,51.761 111.421,52.045 111.298,52.371 C111.175,52.697 111.114,53.045 111.114,53.414 L111.114,53.436 C111.114,53.805 111.175,54.155 111.298,54.484 C111.421,54.814 111.595,55.102 111.819,55.348 C112.043,55.594 112.308,55.788 112.615,55.929 C112.922,56.071 113.257,56.141 113.618,56.141 C114.08,56.141 114.478,56.052 114.81,55.875 C115.142,55.698 115.471,55.457 115.796,55.153 L116.652,56.021 C116.458,56.232 116.253,56.418 116.04,56.581 C115.827,56.744 115.597,56.886 115.352,57.005 C115.106,57.124 114.837,57.215 114.544,57.276 C114.252,57.338 113.928,57.369 113.574,57.369" id="Fill-28" sketch:type="MSShapeGroup"></path>
                <path d="M120.284,49.633 L121.606,49.633 L121.606,57.239 L120.284,57.239 L120.284,49.633 Z" id="Fill-29" sketch:type="MSShapeGroup"></path>
                <path d="M128.499,49.579 L129.735,49.579 L133.073,57.238 L131.664,57.238 L130.895,55.403 L127.307,55.403 L126.526,57.238 L125.161,57.238 L128.499,49.579 L128.499,49.579 Z M130.406,54.218 L129.095,51.176 L127.794,54.218 L130.406,54.218 L130.406,54.218 Z M129.724,47.221 L130.916,47.753 L129.594,49.002 L128.575,49.002 L129.724,47.221 L129.724,47.221 Z" id="Fill-30" sketch:type="MSShapeGroup"></path>
                <path d="M140.074,57.369 C139.518,57.369 139.005,57.267 138.536,57.065 C138.066,56.862 137.658,56.585 137.313,56.233 C136.967,55.882 136.697,55.467 136.5,54.989 C136.303,54.511 136.205,54.001 136.205,53.458 L136.205,53.436 C136.205,52.893 136.302,52.384 136.495,51.909 C136.687,51.435 136.959,51.018 137.307,50.66 C137.656,50.301 138.069,50.019 138.546,49.812 C139.023,49.605 139.551,49.503 140.129,49.503 C140.475,49.503 140.792,49.532 141.077,49.589 C141.362,49.648 141.625,49.729 141.863,49.834 C142.101,49.939 142.322,50.064 142.524,50.209 C142.726,50.354 142.918,50.513 143.099,50.687 L142.242,51.676 C141.939,51.393 141.617,51.165 141.278,50.991 C140.938,50.817 140.551,50.73 140.118,50.73 C139.757,50.73 139.423,50.801 139.115,50.942 C138.808,51.084 138.543,51.275 138.319,51.518 C138.095,51.761 137.921,52.045 137.799,52.371 C137.676,52.697 137.614,53.045 137.614,53.414 L137.614,53.436 C137.614,53.805 137.676,54.155 137.799,54.484 C137.921,54.814 138.095,55.102 138.319,55.348 C138.543,55.594 138.808,55.788 139.115,55.929 C139.423,56.071 139.757,56.141 140.118,56.141 C140.58,56.141 140.978,56.052 141.31,55.875 C141.643,55.698 141.971,55.457 142.297,55.153 L143.153,56.021 C142.958,56.232 142.754,56.418 142.54,56.581 C142.327,56.744 142.098,56.886 141.852,57.005 C141.606,57.124 141.337,57.215 141.045,57.276 C140.752,57.338 140.429,57.369 140.074,57.369" id="Fill-31" sketch:type="MSShapeGroup"></path>
                <path d="M146.784,49.633 L148.106,49.633 L148.106,57.239 L146.784,57.239 L146.784,49.633 Z" id="Fill-32" sketch:type="MSShapeGroup"></path>
                <path d="M154.999,49.579 L156.235,49.579 L159.573,57.238 L158.164,57.238 L157.395,55.403 L153.807,55.403 L153.027,57.238 L151.661,57.238 L154.999,49.579 L154.999,49.579 Z M156.907,54.218 L155.596,51.176 L154.295,54.218 L156.907,54.218 L156.907,54.218 Z" id="Fill-33" sketch:type="MSShapeGroup"></path>
                <path d="M16.381,21.276 C15.734,21.276 15.099,21.164 14.476,20.941 C13.853,20.718 13.287,20.375 12.778,19.913 L13.881,18.587 C14.27,18.904 14.668,19.155 15.077,19.341 C15.485,19.528 15.933,19.621 16.418,19.621 C16.806,19.621 17.107,19.55 17.322,19.408 C17.536,19.266 17.643,19.07 17.643,18.819 L17.643,18.794 C17.643,18.672 17.62,18.565 17.576,18.472 C17.532,18.378 17.446,18.291 17.321,18.211 C17.195,18.129 17.02,18.048 16.798,17.967 C16.574,17.886 16.284,17.801 15.928,17.712 C15.498,17.607 15.108,17.489 14.759,17.359 C14.411,17.229 14.115,17.069 13.871,16.878 C13.628,16.688 13.44,16.451 13.306,16.167 C13.172,15.883 13.105,15.53 13.105,15.109 L13.105,15.084 C13.105,14.695 13.178,14.344 13.322,14.032 C13.467,13.72 13.669,13.45 13.931,13.223 C14.192,12.997 14.504,12.822 14.867,12.7 C15.229,12.578 15.629,12.518 16.066,12.518 C16.688,12.518 17.261,12.611 17.783,12.797 C18.304,12.984 18.783,13.252 19.221,13.601 L18.25,15.011 C17.869,14.752 17.497,14.547 17.133,14.397 C16.77,14.247 16.405,14.172 16.042,14.172 C15.677,14.172 15.405,14.243 15.222,14.385 C15.04,14.527 14.95,14.703 14.95,14.914 L14.95,14.938 C14.95,15.076 14.976,15.196 15.028,15.297 C15.081,15.399 15.177,15.49 15.315,15.57 C15.452,15.652 15.641,15.729 15.88,15.802 C16.119,15.875 16.421,15.96 16.786,16.058 C17.216,16.171 17.6,16.299 17.936,16.441 C18.273,16.583 18.557,16.753 18.788,16.951 C19.019,17.15 19.193,17.383 19.311,17.651 C19.429,17.918 19.487,18.239 19.487,18.611 L19.487,18.636 C19.487,19.057 19.411,19.433 19.259,19.761 C19.106,20.09 18.893,20.365 18.619,20.588 C18.346,20.811 18.02,20.982 17.641,21.099 C17.262,21.216 16.843,21.276 16.381,21.276" id="Fill-34" sketch:type="MSShapeGroup"></path>
                <path d="M44.596,21.287 C43.455,21.287 42.558,20.972 41.903,20.339 C41.247,19.707 40.92,18.762 40.92,17.505 L40.92,12.64 L42.788,12.64 L42.788,17.456 C42.788,18.154 42.95,18.679 43.273,19.031 C43.597,19.384 44.046,19.56 44.62,19.56 C45.195,19.56 45.643,19.39 45.967,19.05 C46.291,18.709 46.453,18.198 46.453,17.517 L46.453,12.64 L48.321,12.64 L48.321,17.444 C48.321,18.093 48.234,18.657 48.061,19.135 C47.887,19.613 47.638,20.012 47.314,20.333 C46.991,20.653 46.598,20.892 46.137,21.051 C45.676,21.208 45.162,21.287 44.596,21.287" id="Fill-35" sketch:type="MSShapeGroup"></path>
                <path d="M15.665,43.177 L12.826,38.993 L15.01,38.993 L16.794,41.754 L18.59,38.993 L20.713,38.993 L17.873,43.153 L20.834,47.508 L18.65,47.508 L16.745,44.589 L14.828,47.508 L12.705,47.508 L15.665,43.177" id="Fill-36" sketch:type="MSShapeGroup"></path>
                <path d="M43.965,38.933 L45.688,38.933 L49.328,47.508 L47.375,47.508 L46.598,45.598 L43.007,45.598 L42.23,47.508 L40.325,47.508 L43.965,38.933 L43.965,38.933 Z M45.931,43.944 L44.803,41.183 L43.674,43.944 L45.931,43.944 L45.931,43.944 Z" id="Fill-37" sketch:type="MSShapeGroup"></path>
                <path d="M31.359,30.335 C31.359,31.161 30.691,31.831 29.868,31.831 C29.044,31.831 28.376,31.161 28.376,30.335 C28.376,29.51 29.044,28.84 29.868,28.84 C30.691,28.84 31.359,29.51 31.359,30.335" id="Fill-38" sketch:type="MSShapeGroup"></path>
                <path d="M58.478,7.357 L58.478,59.193 L6.768,59.193 L6.768,64.667 L63.938,64.667 L63.938,7.357 L58.478,7.357" id="Fill-39" sketch:type="MSShapeGroup"></path>
            </g>
        </g>
    </g>
</svg>